<svg xmlns="http://www.w3.org/2000/svg" xmlns:xlink="http://www.w3.org/1999/xlink" width="60" zoomAndPan="magnify" viewBox="0 0 375 374.999991" height="60" preserveAspectRatio="xMidYMid meet" version="1.0"><path fill="#d6d10f" d="M 114.257812 289.628906 C 109.671875 288.003906 104.746094 287.109375 99.609375 287.109375 C 75.378906 287.109375 55.664062 306.824219 55.664062 331.054688 C 55.664062 355.285156 75.378906 375 99.609375 375 C 123.839844 375 143.554688 355.285156 143.554688 331.054688 L 143.554688 231.164062 L 231.445312 209.191406 L 231.445312 260.332031 C 226.859375 258.707031 221.933594 257.8125 216.796875 257.8125 C 192.566406 257.8125 172.851562 277.527344 172.851562 301.757812 C 172.851562 325.988281 192.566406 345.703125 216.796875 345.703125 C 241.027344 345.703125 260.742188 325.988281 260.742188 301.757812 L 260.742188 171.667969 L 114.257812 208.289062 Z M 216.796875 316.40625 C 208.71875 316.40625 202.148438 309.835938 202.148438 301.757812 C 202.148438 293.679688 208.71875 287.109375 216.796875 287.109375 C 224.875 287.109375 231.445312 293.679688 231.445312 301.757812 C 231.445312 309.835938 224.875 316.40625 216.796875 316.40625 Z M 99.609375 345.703125 C 91.53125 345.703125 84.960938 339.132812 84.960938 331.054688 C 84.960938 322.976562 91.53125 316.40625 99.609375 316.40625 C 107.6875 316.40625 114.257812 322.976562 114.257812 331.054688 C 114.257812 339.132812 107.6875 345.703125 99.609375 345.703125 Z M 99.609375 345.703125 " fill-opacity="1" fill-rule="nonzero"/><path fill="#d6d10f" d="M 290.039062 58.59375 C 289.695312 58.59375 289.355469 58.597656 289.011719 58.597656 C 279.777344 42.609375 266.875 28.996094 251.269531 18.855469 C 232.28125 6.519531 210.230469 0 187.5 0 C 164.769531 0 142.714844 6.519531 123.730469 18.855469 C 108.125 28.996094 95.222656 42.609375 85.988281 58.601562 C 85.644531 58.597656 85.304688 58.59375 84.960938 58.59375 C 37.320312 58.59375 0 97.199219 0 146.484375 C 0 195.769531 37.320312 234.375 84.960938 234.375 L 84.960938 205.078125 C 53.226562 205.078125 29.296875 179.886719 29.296875 146.484375 C 29.296875 113.082031 53.226562 87.890625 84.960938 87.890625 C 87.53125 87.890625 90.113281 88.058594 92.640625 88.386719 L 103.273438 89.777344 L 107.808594 80.058594 C 122.207031 49.222656 153.484375 29.296875 187.5 29.296875 C 221.511719 29.296875 252.792969 49.222656 267.191406 80.058594 L 271.726562 89.777344 L 282.359375 88.386719 C 284.886719 88.058594 287.46875 87.890625 290.039062 87.890625 C 321.773438 87.890625 345.703125 113.082031 345.703125 146.484375 C 345.703125 179.886719 321.773438 205.078125 290.039062 205.078125 L 290.039062 234.375 C 337.679688 234.375 375 195.769531 375 146.484375 C 375 97.199219 337.679688 58.59375 290.039062 58.59375 Z M 290.039062 58.59375 " fill-opacity="1" fill-rule="nonzero"/></svg>