<svg xmlns="http://www.w3.org/2000/svg" width="24" height="24" fill="none" stroke-width="1.25" viewBox="0 0 24 24" id="screen-mirroring"><path fill="#ffffff" fill-rule="evenodd" d="M1.25 5C1.25 3.48122 2.48122 2.25 4 2.25H20C21.5188 2.25 22.75 3.48122 22.75 5V15C22.75 16.5188 21.5188 17.75 20 17.75H18C17.5858 17.75 17.25 17.4142 17.25 17C17.25 16.5858 17.5858 16.25 18 16.25H20C20.6904 16.25 21.25 15.6904 21.25 15V5C21.25 4.30964 20.6904 3.75 20 3.75H4C3.30964 3.75 2.75 4.30964 2.75 5V15C2.75 15.6904 3.30964 16.25 4 16.25H6C6.41421 16.25 6.75 16.5858 6.75 17C6.75 17.4142 6.41421 17.75 6 17.75H4C2.48122 17.75 1.25 16.5188 1.25 15V5Z" clip-rule="evenodd"></path><path fill="#ffffff" fill-rule="evenodd" d="M10.5809 14.6847C11.2794 13.7168 12.7206 13.7168 13.419 14.6847L15.7943 17.9759C16.6295 19.1333 15.8025 20.75 14.3752 20.75H9.62478C8.19747 20.75 7.37046 19.1333 8.20573 17.9759L10.5809 14.6847ZM12.2027 15.5625C12.1029 15.4242 11.8971 15.4242 11.7973 15.5625L9.42206 18.8537C9.30273 19.019 9.42088 19.25 9.62478 19.25H14.3752C14.5791 19.25 14.6973 19.019 14.5779 18.8537L12.2027 15.5625Z" clip-rule="evenodd"></path></svg>